PathFileType	4	(X/Y/Z)	/Users/itak/Documents/Research/Walk-IL/dataset/trc/00039_00004.trc
DataRate	CameraRate	NumFrames	NumMarkers	Units	OrigDataRate	OrigDataStartFrame	OrigNumFrames
100.000000	100.000000	4	53	mm	100.000000	175	468
Frame#	Time	RPSI			LPSI			L3			STRN			T10			C7			CLAV			RBAK			LBAK			LSHO			LUPA			LAEL			LAOL			LWTS			LWPS			LFRA			LIFD			LHPS			LHTS			RSHO			RUPA			RAEL			RAOL			RWTS			RWPS			RFRA			RIFD			RHTS			RHPS			RBHD			LFHD			RFHD			LBHD			LHIP			RHIP			RASI			LASI			LKNE			LTHI			LANK			LTIP			LTOE			LMT1			LMT5			LHEE			RKNE			RTHI			RANK			RTIP			RTOE			RMT1			RMT5			RHEE			
		X1	Y1	Z1	X2	Y2	Z2	X3	Y3	Z3	X4	Y4	Z4	X5	Y5	Z5	X6	Y6	Z6	X7	Y7	Z7	X8	Y8	Z8	X9	Y9	Z9	X10	Y10	Z10	X11	Y11	Z11	X12	Y12	Z12	X13	Y13	Z13	X14	Y14	Z14	X15	Y15	Z15	X16	Y16	Z16	X17	Y17	Z17	X18	Y18	Z18	X19	Y19	Z19	X20	Y20	Z20	X21	Y21	Z21	X22	Y22	Z22	X23	Y23	Z23	X24	Y24	Z24	X25	Y25	Z25	X26	Y26	Z26	X27	Y27	Z27	X28	Y28	Z28	X29	Y29	Z29	X30	Y30	Z30	X31	Y31	Z31	X32	Y32	Z32	X33	Y33	Z33	X34	Y34	Z34	X35	Y35	Z35	X36	Y36	Z36	X37	Y37	Z37	X38	Y38	Z38	X39	Y39	Z39	X40	Y40	Z40	X41	Y41	Z41	X42	Y42	Z42	X43	Y43	Z43	X44	Y44	Z44	X45	Y45	Z45	X46	Y46	Z46	X47	Y47	Z47	X48	Y48	Z48	X49	Y49	Z49	X50	Y50	Z50	X51	Y51	Z51	X52	Y52	Z52	X53	Y53	Z53	

176	1.75	-998.3914794921875	1045.291381835938	93.32594299316406	-1025.856201171875	1040.47216796875	-66.93116760253906	-1014.150756835938	1104.3115234375	0.4874184727668762	-770.7949829101562	1283.344116210938	-18.87349700927734	-1024.114013671875	1248.833129882812	-16.35805320739746	-954.9763793945312	1510.822021484375	-39.97378158569336	-805.6250610351562	1411.839599609375	-27.14981079101562	-1018.775756835938	1381.884643554688	44.49505615234375	-975.0055541992188	1467.476684570312	-136.3465118408203	-871.7059936523438	1466.820068359375	-209.2396545410156	-908.4506225585938	1339.820678710938	-283.01953125	-914.289306640625	1120.20849609375	-303.4104309082031	-971.8907470703125	1111.701171875	-214.6440277099609	-821.74072265625	873.9686279296875	-232.2171173095703	-895.384521484375	855.1812744140625	-277.4905700683594	-899.1834106445312	1004.562255859375	-303.5244140625	-791.2384033203125	692.0603637695312	-201.2273101806641	-858.816162109375	766.7566528320312	-270.6355285644531	-794.2951049804688	782.4149169921875	-238.5496520996094	-886.1585693359375	1497.508544921875	138.52783203125	-908.51123046875	1430.829345703125	210.2577056884766	-972.90380859375	1170.12451171875	241.0656433105469	-969.7793579101562	1138.73828125	145.5140380859375	-875.0405883789062	895.2939453125	226.9251708984375	-944.4957885742188	892.0770874023438	288.7836303710938	-970.1489868164062	1093.938842773438	260.0027160644531	-886.4464721679688	706.7421264648438	220.9352111816406	-857.9428100585938	783.5723266601562	247.9527740478516	-915.472900390625	788.2803955078125	294.9729309082031	-876.7304077148438	1682.366455078125	-121.3593673706055	-754.3822021484375	1707.884521484375	57.65167617797852	-719.2908935546875	1707.693725585938	-34.36761093139648	-921.7713012695312	1680.675048828125	16.3997631072998	-958.1365966796875	932.9174194335938	-185.9426422119141	-863.6845092773438	935.9978637695312	177.4375610351562	-784.9472045898438	966.757080078125	82.0223388671875	-825.9589233398438	972.5052490234375	-148.8215789794922	-979.7026977539062	494.2112121582031	-138.6544342041016	-980.5208129882812	633.1724243164062	-170.4968719482422	-1190.934448242188	46.80362319946289	-114.1471176147461	-1117.332641601562	284.3194274902344	-141.2025756835938	-976.167724609375	40.66032028198242	-36.8839111328125	-1036.21337890625	51.45928573608398	-26.29868698120117	-1065.401611328125	39.90390014648438	-129.5665740966797	-1262.682983398438	63.63492202758789	-65.91914367675781	-695.7163696289062	543.4686889648438	125.1453170776367	-794.898681640625	788.550048828125	168.90087890625	-633.1375122070312	51.04064559936523	78.70475006103516	-675.2881469726562	418.0362854003906	121.4043426513672	-410.7234191894531	120.837516784668	76.25711822509766	-466.3945922851562	106.8720474243164	36.40766525268555	-497.3291320800781	91.47104644775391	126.7473068237305	-677.1461181640625	39.31834030151367	24.96095848083496	
177	1.76	-991.4541625976562	1043.719116210938	94.57202911376953	-1019.13232421875	1039.3037109375	-65.60291290283203	-1007.284240722656	1102.9892578125	1.881487727165222	-763.7471923828125	1281.791870117188	-17.26967811584473	-1017.13818359375	1247.536010742188	-14.87562465667725	-947.6815185546875	1509.493896484375	-38.19310760498047	-798.46923828125	1410.329956054688	-25.36908912658691	-1011.674926757812	1380.5107421875	46.10504150390625	-967.6820678710938	1466.280639648438	-134.6224212646484	-864.3842163085938	1465.52587890625	-207.4517669677734	-901.1401977539062	1338.598999023438	-281.3732299804688	-906.974365234375	1118.96337890625	-301.8783874511719	-964.8026123046875	1110.456665039062	-213.2582855224609	-814.7217407226562	872.6739501953125	-230.5254211425781	-888.2111206054688	853.9302368164062	-276.0470886230469	-891.9278564453125	1003.320678710938	-301.9965209960938	-784.3218994140625	690.75244140625	-199.51318359375	-851.6891479492188	765.5120239257812	-269.1263732910156	-787.2095336914062	781.1425170898438	-236.8773956298828	-879.0116577148438	1495.90185546875	140.3438415527344	-901.5133056640625	1429.182006835938	211.9907531738281	-966.4161987304688	1168.603881835938	242.5315856933594	-963.209716796875	1137.251953125	146.948974609375	-869.0625610351562	893.6339111328125	228.3663787841797	-938.5302124023438	890.4946899414062	290.1487731933594	-963.8132934570312	1092.403564453125	261.4352416992188	-880.5928955078125	705.0931396484375	222.3170623779297	-852.0244140625	781.890380859375	249.3743591308594	-909.73095703125	786.6387939453125	296.2617797851562	-868.44482421875	1680.990234375	-119.6244201660156	-747.3765869140625	1706.17822265625	60.32573699951172	-711.6483154296875	1706.032958984375	-31.43720054626465	-914.5146484375	1679.240966796875	17.82756042480469	-951.7691650390625	932.0911865234375	-184.8440551757812	-856.6134033203125	934.1539916992188	178.2558135986328	-778.05224609375	964.9865112304688	82.78249359130859	-819.3935546875	971.2498168945312	-148.0374145507812	-975.6099243164062	493.5913696289062	-138.608154296875	-975.9222412109375	632.7219848632812	-170.1065521240234	-1190.779174804688	47.63550567626953	-113.9962158203125	-1115.147705078125	284.7135314941406	-141.0132751464844	-976.12353515625	40.647705078125	-36.9174690246582	-1036.135986328125	51.44645690917969	-26.29527282714844	-1065.260498046875	39.88470077514648	-129.5572814941406	-1262.425170898438	65.16468811035156	-65.83654022216797	-689.3783569335938	541.8211669921875	126.25341796875	-788.37841796875	786.8380737304688	169.6795806884766	-622.7833251953125	50.25261306762695	77.47479248046875	-668.5430908203125	416.5833435058594	122.2289733886719	-401.0333557128906	122.2219467163086	82.34978485107422	-455.2970581054688	107.9892425537109	40.66506195068359	-489.0006713867188	91.78291320800781	129.8643646240234	-665.0037841796875	38.48841094970703	22.34389686584473	
178	1.77	-984.3355102539062	1042.203002929688	95.84042358398438	-1012.201416015625	1038.196044921875	-64.26415252685547	-1000.207702636719	1101.690063476562	3.299640655517578	-756.5345458984375	1280.28759765625	-15.55370044708252	-1009.984008789062	1246.267700195312	-13.31018924713135	-940.2559204101562	1508.196655273438	-36.28207778930664	-791.14013671875	1408.867553710938	-23.46220779418945	-1004.412658691406	1379.147705078125	47.82272720336914	-960.2171630859375	1465.132080078125	-132.7748870849609	-856.9160766601562	1464.29736328125	-205.5354614257812	-893.6729125976562	1337.446411132812	-279.6021728515625	-899.4728393554688	1117.798095703125	-300.2375793457031	-957.5269165039062	1109.282104492188	-211.7606353759766	-807.593017578125	871.4110107421875	-228.7797546386719	-880.9208984375	852.7413330078125	-274.5442504882812	-884.5172119140625	1002.153503417969	-300.3861999511719	-777.3636474609375	689.4534912109375	-197.77294921875	-844.47607421875	764.317138671875	-267.5762634277344	-780.0838623046875	779.8638916015625	-235.1686248779297	-871.717529296875	1494.315063476562	142.2991485595703	-894.3776245117188	1427.547485351562	213.8503723144531	-959.7588500976562	1167.081665039062	244.0731811523438	-956.4402465820312	1135.77490234375	148.4551239013672	-862.8898315429688	891.9794311523438	229.8770446777344	-932.3922119140625	888.9089965820312	291.5713500976562	-957.3171997070312	1090.865356445312	262.93212890625	-874.5599975585938	703.4498291015625	223.7429504394531	-845.9822998046875	780.1921997070312	250.8603668212891	-903.8290405273438	784.9823608398438	297.6004638671875	-860.0672607421875	1679.676391601562	-117.7325897216797	-740.2410278320312	1704.5302734375	63.12374496459961	-703.8989868164062	1704.431396484375	-28.38260459899902	-907.1262817382812	1677.855224609375	19.41132354736328	-945.1895141601562	931.3130493164062	-183.7246551513672	-849.437255859375	932.3333740234375	179.0972290039062	-770.9808959960938	963.2349243164062	83.61469268798828	-812.6383056640625	970.0491333007812	-147.158935546875	-971.3650512695312	493.0157470703125	-138.5547027587891	-971.1961669921875	632.3289184570312	-169.7334442138672	-1190.562622070312	48.56988525390625	-113.9111557006836	-1112.831665039062	285.1860656738281	-140.8657379150391	-976.0784912109375	40.63360977172852	-36.94263076782227	-1036.031005859375	51.44110870361328	-26.30650901794434	-1065.106079101562	39.87095642089844	-129.5658264160156	-1262.121459960938	66.88385772705078	-65.8233642578125	-682.9632568359375	540.1651000976562	127.4190521240234	-781.6829223632812	785.1735229492188	170.3861236572266	-613.7417602539062	49.28942108154297	76.12797546386719	-661.9907836914062	414.9794311523438	123.0761184692383	-392.635986328125	122.5416946411133	88.48496246337891	-445.44140625	108.2660903930664	44.95097732543945	-482.0324401855469	91.32228851318359	132.9219512939453	-654.1495971679688	37.62922286987305	19.59363174438477	
179	1.78	-977.0345458984375	1040.751586914062	97.12760162353516	-1005.050231933594	1037.156372070312	-62.91622924804688	-992.9163818359375	1100.423950195312	4.737998962402344	-749.144775390625	1278.84912109375	-13.72304058074951	-1002.6455078125	1245.039428710938	-11.66662693023682	-932.6934204101562	1506.943237304688	-34.2387580871582	-783.637939453125	1407.466430664062	-21.42432022094727	-996.9849243164062	1377.80810546875	49.64766693115234	-952.6057739257812	1464.043701171875	-130.8038787841797	-849.2866821289062	1463.150146484375	-203.4861907958984	-886.0381469726562	1336.377563476562	-277.7023315429688	-891.79150390625	1116.730224609375	-298.484619140625	-950.0611572265625	1108.1953125	-210.1419982910156	-800.3551025390625	870.1958618164062	-226.9866027832031	-873.5237426757812	851.6342163085938	-272.9790954589844	-876.9559326171875	1001.077392578125	-298.6901550292969	-770.3640747070312	688.1787109375	-196.0255432128906	-837.1808471679688	763.1876831054688	-265.986083984375	-772.9287719726562	778.5896606445312	-233.4315032958984	-864.282470703125	1492.762084960938	144.39453125	-887.1015625	1425.939819335938	215.8379364013672	-952.935791015625	1165.571899414062	245.6877288818359	-949.4634399414062	1134.320434570312	150.0351867675781	-856.5167236328125	890.3451538085938	231.4613342285156	-926.0858154296875	887.3333129882812	293.0487670898438	-950.6624755859375	1089.33740234375	264.49267578125	-868.3572387695312	701.8286743164062	225.2053527832031	-839.8165893554688	778.489990234375	252.4120025634766	-897.770263671875	783.3278198242188	298.9871826171875	-851.6015014648438	1678.438720703125	-115.6806182861328	-732.97900390625	1702.951904296875	66.05028533935547	-696.0409545898438	1702.90087890625	-25.20041656494141	-899.6040649414062	1676.531372070312	21.15352058410645	-938.3828125	930.5875854492188	-182.5877227783203	-842.1494750976562	930.5477905273438	179.9599914550781	-763.7228393554688	961.5276489257812	84.52666473388672	-805.6666259765625	968.9149780273438	-146.1973876953125	-966.9417114257812	492.4912109375	-138.4908294677734	-966.2847290039062	631.9905395507812	-169.3636016845703	-1190.276245117188	49.61627960205078	-113.9079513549805	-1110.362426757812	285.7450561523438	-140.7718353271484	-976.0343017578125	40.6185188293457	-36.9587516784668	-1035.893676757812	51.46248626708984	-26.34727668762207	-1064.940673828125	39.86346054077148	-129.5997314453125	-1261.7646484375	68.80155181884766	-65.90402984619141	-676.4522094726562	538.5167846679688	128.6116638183594	-774.7880249023438	783.5621948242188	171.0474395751953	-606.0390625	48.13441467285156	74.68466186523438	-655.6029052734375	413.2472839355469	123.9215927124023	-385.5214538574219	121.7444686889648	94.43479919433594	-436.8580932617188	107.6436996459961	49.0989990234375	-476.3509826660156	90.08012390136719	135.7867126464844	-644.6720581054688	36.7295036315918	16.80414199829102	
